<?xml version="1.0" encoding="UTF-8"?>
<svg fill='#80868B'  xmlns="http://www.w3.org/2000/svg" xmlns:xlink="http://www.w3.org/1999/xlink" width="40px" height="40px" viewBox="0 0 40 40" version="1.1">
<g id="surface1">
<path style=" stroke:none;fill-rule:evenodd;fill:rgb(50.196078%,52.54902%,54.509804%);fill-opacity:1;" d="M 20 3.332031 C 10.800781 3.332031 3.332031 10.800781 3.332031 20 C 3.332031 29.199219 10.800781 36.667969 20 36.667969 C 29.199219 36.667969 36.667969 29.199219 36.667969 20 C 36.667969 10.800781 29.199219 3.332031 20 3.332031 Z M 6.667969 20 C 6.667969 18.984375 6.800781 17.984375 7.015625 17.035156 L 14.984375 25 L 14.984375 26.667969 C 14.984375 28.5 16.484375 30 18.316406 30 L 18.316406 33.214844 C 11.765625 32.382812 6.667969 26.785156 6.667969 20 Z M 26.648438 26.667969 C 28.148438 26.667969 29.382812 27.648438 29.816406 29 C 31.984375 26.632812 33.332031 23.46875 33.332031 20 C 33.332031 14.417969 29.867188 9.617188 24.984375 7.648438 L 24.984375 8.332031 C 24.984375 10.167969 23.484375 11.667969 21.648438 11.667969 L 18.316406 11.667969 L 18.316406 15 C 18.316406 15.917969 17.566406 16.667969 16.648438 16.667969 L 13.316406 16.667969 L 13.316406 20 L 23.316406 20 C 24.234375 20 24.984375 20.75 24.984375 21.667969 L 24.984375 26.667969 Z M 26.648438 26.667969 "/>
</g>
</svg>
